<svg version="1.1" id="Layer_1" xmlns="http://www.w3.org/2000/svg" xmlns:xlink="http://www.w3.org/1999/xlink" x="0px" y="0px"
	 width="100%" viewBox="0 0 750 750" enable-background="new 0 0 750 750" xml:space="preserve">
<path fill="#FEFEFE" opacity="1.000000" stroke="none" 
	d="
M1.000000,257.000000 
	C1.000000,171.333328 1.000000,86.166664 1.000000,1.000000 
	C251.000000,1.000000 501.000000,1.000000 751.000000,1.000000 
	C751.000000,251.000000 751.000000,501.000000 751.000000,751.000000 
	C501.000000,751.000000 251.000000,751.000000 1.000000,751.000000 
	C1.000000,586.500000 1.000000,422.000000 1.000000,257.000000 
M443.077667,585.903564 
	C442.266418,586.080566 441.438293,586.201965 440.646393,586.442566 
	C398.264984,599.321411 355.854401,599.143250 313.383972,586.848572 
	C311.316589,586.250061 308.350128,583.872070 307.324829,587.779053 
	C307.102020,588.628235 309.962769,591.018188 311.746918,591.553711 
	C343.756775,601.160645 376.396210,603.723999 409.400391,598.636108 
	C421.456940,596.777527 433.212555,592.967041 445.871857,590.023315 
	C469.621033,582.669189 491.279541,571.241150 511.104553,556.319275 
	C528.748047,543.039368 544.486206,527.850708 557.785217,509.738098 
	C562.433289,512.816589 567.081421,515.895081 571.835083,519.043518 
	C572.537048,518.167664 573.090881,517.557495 573.555359,516.885559 
	C615.234131,456.590637 627.780762,390.674042 611.562439,319.259796 
	C609.731689,311.198547 607.384705,303.254578 605.971985,295.184814 
	C609.972290,294.834778 608.350159,292.316956 607.515076,290.581055 
	C600.455872,275.907562 594.193481,260.752563 585.955078,246.765045 
	C568.918762,217.840057 546.048889,194.001465 518.656616,174.554443 
	C517.761108,173.918686 516.706177,173.507568 515.469421,172.857025 
	C514.633179,174.320755 513.945557,175.524307 513.515625,176.276840 
	C523.072388,184.313354 532.885986,191.384308 541.240234,199.888809 
	C551.806274,210.644897 561.184387,222.568024 570.511047,234.365906 
	C566.004883,237.469879 561.498779,240.573868 556.635681,243.012100 
	C541.921631,223.016418 524.371521,205.914597 503.955048,191.810226 
	C485.678925,179.184479 466.173615,168.982162 445.129547,161.974426 
	C446.889893,156.652206 448.650208,151.329971 450.586182,145.476761 
	C400.411346,130.058273 350.861389,129.627151 300.679749,145.125412 
	C299.759094,141.429840 297.557373,141.749481 294.609772,142.824707 
	C229.745422,166.485535 181.934525,209.093567 151.990936,271.405914 
	C135.970230,304.744843 128.805939,340.171295 127.247261,377.003510 
	C121.823669,377.050507 116.400085,377.097504 110.178139,377.005554 
	C109.100311,376.991608 108.022491,376.977661 106.876114,376.033203 
	C107.319229,366.708069 107.762344,357.382965 108.877464,348.059662 
	C110.158852,348.059662 111.440231,348.059662 112.784203,348.059662 
	C119.263588,291.092560 141.527634,241.420380 179.358963,198.815445 
	C178.530975,197.947861 178.124237,197.399521 177.601257,197.005463 
	C176.986084,196.541962 176.270081,196.212250 174.612686,195.256378 
	C165.650253,207.620895 156.367966,219.576553 148.011261,232.147507 
	C134.217865,252.896835 124.733810,275.740021 116.363708,299.192871 
	C111.153076,297.715942 105.942451,296.239044 100.349930,294.653870 
	C83.169044,354.711823 84.751648,413.540710 105.035995,472.089111 
	C111.017380,470.103973 116.371765,468.326904 122.000320,467.338257 
	C134.211533,500.785309 152.028046,530.823486 176.121887,557.244446 
	C177.387299,556.187561 178.273407,555.447449 179.817902,554.910034 
	C180.808365,555.778015 181.880325,556.569458 182.777435,557.525146 
	C209.154160,585.623596 240.146729,607.052307 275.758514,621.761292 
	C281.817505,624.263794 288.058105,626.326599 294.446259,628.677673 
	C296.547363,622.540283 298.356995,617.254272 300.186615,611.909851 
	C302.134583,612.420105 303.590851,612.749084 305.015411,613.182434 
	C330.705017,620.997253 356.986572,624.468933 383.805725,623.652771 
	C406.882233,622.950439 429.383667,618.699097 451.634399,612.861938 
	C453.313202,618.021729 454.991974,623.181580 456.853210,628.902100 
	C516.460815,608.684509 563.488220,572.984741 597.648193,520.766479 
	C626.193909,477.130554 640.203796,429.035767 640.427368,376.768311 
	C634.029053,376.768311 628.274658,376.768311 622.152771,376.768311 
	C622.152771,378.541077 622.279785,380.023438 622.133118,381.478271 
	C620.683533,395.858124 620.424133,410.490295 617.496887,424.566315 
	C603.291565,492.872223 566.580139,546.183167 508.286743,584.464111 
	C490.885284,595.891541 472.278931,605.050415 452.121094,610.115723 
	C451.677002,605.831177 449.043182,607.317322 446.692596,608.055481 
	C422.360992,615.697083 397.374939,619.211426 371.947662,618.758118 
	C348.072937,618.332520 324.628357,614.554077 301.704193,606.900391 
	C300.933685,608.335876 300.252655,609.604736 299.523682,610.962830 
	C298.727234,610.739441 298.094086,610.593384 297.481812,610.385681 
	C254.038177,595.652100 217.498413,570.722473 187.807510,535.805481 
	C168.649658,513.275574 153.887833,488.142731 144.736481,460.062439 
	C147.381546,459.615356 148.318954,458.595123 147.271561,455.634033 
	C138.276337,430.203735 133.811920,403.969513 133.923981,376.068054 
	C134.985168,362.670898 135.025330,349.098846 137.284576,335.906891 
	C146.980591,279.291199 173.520996,231.820862 216.715698,193.865631 
	C239.712357,173.658432 265.832825,158.618973 294.619507,148.234756 
	C296.574066,147.529678 298.766388,147.483765 300.976074,147.885910 
	C302.609619,152.859314 304.243164,157.832718 305.020355,162.973679 
	C259.549286,178.622208 222.524811,205.693604 193.765579,244.763901 
	C195.418045,245.793060 196.614685,246.538345 198.040344,247.426239 
	C226.349030,209.236298 262.835327,182.661865 307.460754,167.470673 
	C307.093384,165.642746 306.832947,164.346832 307.325653,162.772415 
	C353.012451,148.284317 398.694214,148.143341 444.199280,163.667847 
	C442.544067,167.602158 445.558594,167.997681 448.076447,168.877228 
	C477.047394,178.997513 502.961334,194.316986 525.129211,215.531815 
	C535.295349,225.260895 544.474182,236.021652 554.299988,246.527634 
	C554.809998,246.188309 555.904541,245.460037 557.614563,245.047150 
	C595.819397,299.052979 608.364014,358.540558 595.209229,423.307831 
	C588.895142,454.395172 576.101074,482.732910 556.500732,507.829773 
	C553.776306,504.882141 552.610229,507.625397 551.309387,509.335266 
	C533.172607,533.175354 511.293488,552.894775 484.991760,567.186707 
	C471.798431,574.355774 457.603455,579.681458 443.077667,585.903564 
M424.586060,525.967407 
	C456.646820,515.408203 482.449890,496.331390 502.973236,468.896576 
	C496.622162,464.282745 490.761292,460.025024 484.556580,455.517517 
	C467.052002,479.066956 444.488831,495.294739 417.062164,504.621765 
	C418.827637,510.672699 420.445648,516.218262 421.252747,521.908081 
	C390.354706,531.182556 359.535065,531.419250 328.884583,520.312927 
	C330.541687,515.007507 332.198822,509.702148 333.895477,504.270142 
	C312.341949,496.769928 293.931091,485.320312 278.456696,468.894684 
	C279.353851,467.500671 280.101685,466.338654 280.533112,465.668274 
	C275.400208,458.657562 270.257385,452.314880 265.855469,445.494049 
	C252.241531,424.399170 246.205109,401.023010 245.971481,375.152924 
	C246.237991,371.172028 246.340134,367.172180 246.796295,363.213135 
	C251.644531,321.137482 272.366119,288.883545 307.799988,266.146271 
	C315.433441,261.248016 324.204346,258.137329 332.352264,254.007858 
	C333.435699,253.458755 333.931885,251.751007 334.700073,250.579880 
	C333.341217,250.162292 332.002594,249.633530 330.613739,249.380997 
	C330.046082,249.277771 329.368713,249.769684 328.742920,249.995483 
	C276.974426,268.674133 240.715820,320.730408 240.071564,376.095215 
	C234.384293,376.167633 228.697021,376.240021 222.182861,376.158691 
	C219.481674,375.722870 218.038757,376.582581 218.430618,379.598785 
	C219.820892,390.299683 220.168396,401.247772 222.690125,411.671814 
	C239.439819,480.909546 295.911224,528.508301 366.892334,533.508362 
	C386.308472,534.876099 405.373230,532.532349 424.586060,525.967407 
M528.250427,248.687164 
	C530.925720,247.086563 530.321533,245.354691 528.484375,243.532745 
	C521.987488,237.089539 515.899109,230.166901 508.944611,224.263977 
	C475.002747,195.454376 436.175201,178.114807 391.415192,174.689102 
	C361.188934,172.375748 332.056458,176.848785 303.721802,187.331924 
	C299.902954,188.744766 300.210602,190.556549 302.521301,192.991165 
	C347.433319,179.532608 357.397308,177.520340 392.770844,180.265610 
	C406.877899,181.360428 420.734589,185.681046 434.273834,189.275177 
	C433.126862,192.919678 432.212677,196.659653 430.767944,200.182037 
	C429.299164,203.762939 430.054199,205.398270 433.864471,206.667160 
	C452.476471,212.865280 469.544922,222.080124 485.032990,234.110764 
	C488.464813,236.776520 491.340637,240.158112 493.979218,243.787201 
	C491.275513,245.933426 493.567535,247.056961 494.926758,248.346832 
	C513.495117,265.967316 527.976685,286.450043 537.451965,310.257507 
	C541.164795,319.586273 543.926331,329.293640 547.130188,338.855560 
	C551.418396,338.334778 551.448669,338.327606 550.472839,334.216278 
	C544.923340,310.837006 534.930298,289.507751 521.026306,269.393494 
	C525.449829,265.815582 529.873413,262.237640 534.492371,258.501709 
	C532.094910,255.236359 529.876709,252.215149 528.250427,248.687164 
M572.000000,376.128845 
	C568.014893,376.121857 564.010620,376.354767 560.050171,376.038727 
	C556.270630,375.737122 555.239502,377.284271 555.044434,380.833618 
	C554.599426,388.928314 554.220764,397.078888 552.938232,405.065948 
	C548.418518,433.213165 537.730774,458.853516 520.067627,481.257599 
	C516.965210,477.957245 515.776978,481.000885 514.145447,482.974548 
	C467.910889,538.905273 409.122467,561.234192 337.807220,546.774963 
	C295.927948,538.283997 262.416046,515.277039 236.394958,481.405060 
	C235.724045,480.531708 234.944031,479.742188 234.053253,478.729889 
	C232.751785,479.872955 231.695526,480.800659 229.897705,482.379669 
	C237.442581,490.593262 244.339630,498.944855 252.092590,506.407135 
	C309.040741,561.219788 395.358765,571.958313 464.077454,533.044983 
	C486.582672,520.300964 505.236542,503.239471 521.541077,482.994110 
	C526.098206,486.204742 530.655334,489.415375 535.439819,492.786194 
	C548.178772,475.672607 557.090820,457.397217 564.593201,438.123291 
	C568.565979,440.367279 568.920349,437.201965 569.662231,434.701050 
	C578.454712,405.061066 580.471069,374.915924 575.694763,344.418549 
	C574.091919,334.183899 571.259094,324.141907 568.874939,313.505310 
	C566.513855,314.427063 565.208069,314.936829 564.197937,315.331177 
	C566.459595,325.622894 569.216248,335.419159 570.638489,345.405518 
	C572.085083,355.562897 572.217102,365.907532 572.000000,376.128845 
M630.912720,560.516541 
	C672.112671,502.481110 692.296692,438.014648 690.219666,366.733521 
	C688.444092,305.798859 670.068909,250.250488 636.099060,199.746246 
	C634.184570,196.899796 632.538757,193.872635 631.404358,190.657135 
	C635.757812,187.439682 640.111267,184.222244 644.782227,180.770142 
	C591.393555,110.344711 522.363403,65.858391 435.997009,49.446533 
	C380.786499,38.955109 326.299774,42.923191 272.494080,60.455338 
	C274.570465,66.613556 276.395172,72.025406 278.213531,77.418365 
	C425.976593,30.530348 561.767883,96.812729 629.143494,191.631302 
	C628.161438,192.501511 627.179382,193.371735 626.999329,193.531296 
	C705.606750,315.799927 705.561951,437.255066 626.924988,559.440674 
	C627.587952,559.807800 628.850342,560.506836 629.594299,561.618286 
	C589.270142,615.999451 536.924011,653.919250 472.423828,675.635925 
	C474.399811,681.555786 476.212463,686.986267 478.166077,692.839050 
	C546.736084,669.773987 601.835999,629.615051 644.559143,571.988708 
	C639.427185,568.027100 634.965393,564.582825 630.912720,560.516541 
M480.418213,298.854706 
	C463.619232,276.860382 442.422089,261.094910 415.476227,252.430618 
	C413.538544,258.472565 411.791595,263.919800 410.023193,269.433929 
	C445.821564,282.459991 470.569061,306.172424 482.378143,342.008118 
	C494.214294,377.925934 487.597931,411.526184 466.354584,442.716675 
	C471.397003,446.371918 476.039154,449.737000 480.953430,453.299347 
	C497.314331,429.993134 506.156158,404.885223 506.833130,376.691742 
	C510.219269,377.197723 511.334015,375.604584 510.881836,372.420135 
	C509.555237,363.078064 508.887177,353.591858 506.833008,344.414612 
	C502.954803,327.088196 495.320435,311.357117 484.650330,296.992157 
	C483.251190,297.846588 482.127563,298.532806 480.418213,298.854706 
M278.897217,675.952271 
	C279.864990,676.142639 280.858490,676.248840 281.796814,676.535522 
	C323.815613,689.372314 366.620667,694.007263 410.388519,689.130249 
	C414.332886,688.690857 414.768372,687.255188 413.209961,683.733337 
	C380.907837,687.731079 348.843658,686.318726 316.960846,680.122070 
	C284.933441,673.897400 254.701599,662.707581 225.815857,646.977051 
	C225.066132,648.630432 224.531998,649.808411 223.290497,650.965027 
	C153.937119,611.457397 104.683243,554.499512 79.124695,478.911346 
	C44.506554,376.529785 60.692608,280.661865 121.272598,191.528885 
	C116.510803,188.115982 111.847519,184.773682 107.193840,181.438263 
	C-26.021801,362.627563 59.175514,623.659485 272.935699,692.113586 
	C274.662628,686.783447 276.392883,681.442993 278.897217,675.952271 
M418.258331,87.208733 
	C415.481049,86.909477 412.703766,86.610229 409.712250,86.287895 
	C409.473999,87.277908 409.206085,88.046417 409.125854,88.834045 
	C409.062225,89.458115 409.228729,90.105637 409.219116,90.010399 
	C541.385864,113.904831 624.603943,189.891068 658.560486,319.990112 
	C658.894714,319.967010 659.723267,319.977509 660.521912,319.828186 
	C660.977661,319.742981 661.384827,319.397308 661.826904,319.161957 
	C661.892883,318.621185 662.028137,318.127411 661.995300,317.645050 
	C661.939026,316.817871 661.838745,315.983704 661.651978,315.176788 
	C641.434143,227.852081 592.092957,162.412003 513.722046,119.014145 
	C484.194855,102.663467 452.424072,92.612778 418.258331,87.208733 
M78.335670,159.582794 
	C80.273209,161.975876 80.264679,161.969513 82.921875,158.407013 
	C117.882835,111.534912 161.357971,74.644493 213.845657,48.934319 
	C298.060852,7.682991 385.605072,-0.062942 476.022858,24.849892 
	C480.263000,26.018169 484.489075,27.237265 489.029877,28.519733 
	C487.876221,24.064579 475.398773,19.820648 439.817719,13.499413 
	C305.255402,-10.406582 164.585999,42.051376 78.335670,159.582794 
M132.410065,652.071594 
	C166.129272,681.759949 204.044052,704.469116 246.068100,720.318481 
	C287.858429,736.079590 330.966278,744.281189 375.533539,744.026062 
	C375.757629,743.150574 375.981750,742.275146 376.205841,741.399658 
	C297.384155,740.340637 225.685394,717.641174 161.893555,671.627625 
	C97.694649,625.320496 53.656796,563.987732 27.604113,489.160522 
	C26.810083,490.680267 26.450422,492.103760 26.867014,493.243500 
	C30.177338,502.300110 33.327282,511.433777 37.098534,520.300476 
	C58.755821,571.219788 90.388321,614.978149 132.410065,652.071594 
M694.622009,554.086426 
	C647.291016,636.695496 578.204590,692.962402 488.079102,723.931335 
	C497.085541,731.279114 574.417969,690.557251 615.658813,655.113159 
	C681.748840,598.312683 722.601074,526.444763 738.412292,440.620972 
	C742.324707,419.384460 744.533508,397.943054 743.880249,376.354309 
	C743.032166,376.202972 742.184143,376.051636 741.336060,375.900299 
	C740.587952,439.045715 725.728577,498.385773 694.622009,554.086426 
M406.195923,227.090912 
	C411.631653,228.423447 417.067383,229.755981 422.850189,231.173615 
	C423.281525,229.418900 423.609650,228.084137 423.927155,226.792465 
	C358.192566,204.491745 284.656006,231.842697 248.980362,284.347748 
	C249.384109,284.786011 249.764236,285.323273 250.262268,285.707886 
	C250.895813,286.197205 251.624832,286.562958 252.143250,286.878754 
	C292.082550,237.931152 342.356598,216.193512 406.195923,227.090912 
M643.503601,479.913879 
	C634.519409,503.217438 622.607300,524.966675 608.041931,545.379822 
	C609.338257,546.315979 610.117126,546.931030 610.951477,547.458130 
	C611.350891,547.710449 611.855591,547.796204 612.699768,548.093933 
	C649.297485,496.657166 667.527161,439.448334 667.956848,375.990356 
	C665.720825,376.088867 664.284302,376.152161 662.358582,376.237000 
	C662.659973,411.897278 656.104248,446.080505 643.503601,479.913879 
M195.900620,146.416992 
	C174.466232,163.285049 155.634369,182.634674 139.456818,205.015671 
	C140.938278,206.162750 142.066727,207.036499 143.382462,208.055252 
	C180.270874,158.161346 227.886063,123.329781 286.661621,103.376968 
	C286.181702,101.817871 285.767242,100.471542 285.216766,98.683342 
	C252.631180,109.341164 223.197037,125.103798 195.900620,146.416992 
M194.966049,598.555786 
	C165.000717,574.207092 140.670486,545.168457 122.452347,511.098114 
	C120.634979,507.699432 119.039780,507.027679 116.135727,509.957184 
	C116.981133,511.627289 117.697105,513.306702 118.635391,514.851135 
	C123.732841,523.241516 128.560135,531.819580 134.073502,539.929871 
	C161.579086,580.391113 197.201752,611.768494 240.613235,634.307495 
	C245.090607,636.632202 245.124954,636.566040 246.117783,633.351624 
	C229.036667,621.760803 212.275772,610.387268 194.966049,598.555786 
M462.470917,121.037888 
	C437.627625,112.700623 412.192322,107.733231 386.058777,106.947235 
	C384.822052,110.315155 385.140839,112.005630 388.667816,112.068443 
	C392.152893,112.130508 395.633484,112.544022 399.112305,112.846207 
	C436.967926,116.134521 472.464752,127.175819 505.443115,145.956146 
	C517.116333,152.603760 528.167908,160.343094 539.802917,167.775375 
	C540.442505,166.959579 541.316406,165.845001 542.175598,164.749130 
	C528.169434,152.173157 496.991272,132.838715 462.470917,121.037888 
M10.166631,417.374969 
	C11.243704,424.564545 12.320778,431.754120 13.397851,438.943695 
	C14.159241,438.875000 14.920631,438.806335 15.682022,438.737640 
	C15.682022,437.145599 15.902861,435.517517 15.649990,433.966705 
	C7.641857,384.853851 9.790829,336.170471 21.734819,287.893188 
	C27.664145,263.927002 36.141708,240.877884 46.646366,218.551697 
	C47.252281,217.263916 47.311199,215.718765 47.624687,214.293381 
	C47.158348,214.145233 46.692005,213.997086 46.225666,213.848923 
	C45.597977,214.726334 44.824497,215.533554 44.363571,216.491241 
	C24.380526,258.010437 12.531900,301.725861 8.970529,347.680359 
	C7.190567,370.648285 7.649898,393.574738 10.166631,417.374969 
M178.785538,473.648132 
	C165.763000,447.300140 158.512238,419.373199 156.417648,389.813660 
	C154.529877,389.998047 153.147873,390.133026 151.793564,390.265320 
	C153.488358,436.150269 174.362518,487.423981 202.546600,519.147095 
	C203.661331,518.246521 204.782959,517.340332 205.054993,517.120544 
	C196.267685,502.657043 187.666718,488.500275 178.785538,473.648132 
M679.146667,167.340363 
	C665.980530,148.009613 650.920776,130.264328 634.258606,113.872620 
	C632.982605,112.617348 631.315674,111.759521 629.830444,110.716965 
	C629.296814,111.237190 628.763123,111.757416 628.229431,112.277641 
	C685.297852,167.372482 720.819641,234.025223 735.549377,312.333435 
	C744.409790,301.459503 708.186768,209.806854 679.146667,167.340363 
M178.915695,384.450562 
	C177.449295,352.501007 184.091049,322.117249 197.295807,292.819305 
	C195.360382,292.155884 194.033279,291.700958 192.516678,291.181122 
	C174.209778,330.948486 169.636795,371.961426 177.149811,414.525635 
	C181.286880,415.208008 182.248520,413.739044 181.757523,410.160431 
	C180.630035,401.942474 179.843369,393.677734 178.915695,384.450562 
M227.672318,274.142395 
	C210.462296,299.074829 200.148270,326.534058 196.863724,356.892853 
	C198.535904,357.003662 199.684570,357.110565 200.834946,357.134674 
	C201.127853,357.140808 201.426254,356.884186 201.819046,356.703735 
	C206.243805,319.512390 221.140152,286.928894 246.207932,258.808075 
	C244.658661,257.615845 243.531464,256.748383 241.992340,255.563965 
	C237.219757,261.725006 232.643082,267.633148 227.672318,274.142395 
M297.993805,457.509979 
	C310.281250,469.238129 324.314209,478.005035 340.962677,483.294830 
	C341.445374,481.435699 341.799316,480.072479 342.248199,478.343567 
	C320.325836,470.737091 302.683350,457.655640 288.858673,439.148224 
	C287.293243,440.257172 286.141052,441.073425 284.285492,442.387939 
	C288.875519,447.469055 293.184265,452.238831 297.993805,457.509979 
M268.407135,342.945709 
	C266.727356,352.406006 264.948792,361.850708 263.448608,371.339417 
	C263.137268,373.308868 262.034302,376.660004 265.849884,376.444031 
	C266.891357,376.385071 268.557861,373.485992 268.600403,371.855408 
	C268.944000,358.692657 272.013184,346.152985 277.293274,334.218475 
	C280.435638,327.115875 284.498138,320.420349 288.359955,313.140228 
	C287.438538,312.447998 286.328644,311.614166 284.871277,310.519318 
	C277.669769,320.495361 272.433624,330.954651 268.407135,342.945709 
M440.074371,313.428101 
	C429.615845,302.992249 417.574371,295.188995 402.999603,290.696228 
	C402.520935,292.527802 402.166992,293.882111 401.757446,295.449158 
	C419.454498,301.319824 433.418060,311.833160 444.597107,326.414154 
	C446.015961,325.250702 447.114807,324.349670 448.503510,323.210968 
	C445.725342,319.961456 443.148926,316.947937 440.074371,313.428101 
z"/>
<path fill="#135943" opacity="1.000000" stroke="none" 
	d="
M278.123169,676.102539 
	C276.392883,681.442993 274.662628,686.783447 272.935699,692.113586 
	C59.175514,623.659485 -26.021801,362.627563 107.193840,181.438263 
	C111.847519,184.773682 116.510803,188.115982 121.272598,191.528885 
	C60.692608,280.661865 44.506554,376.529785 79.124695,478.911346 
	C104.683243,554.499512 153.937119,611.457397 223.818634,651.266602 
	C240.709686,658.943909 257.075684,666.312866 273.430756,673.705994 
	C275.029358,674.428589 276.560638,675.300110 278.123169,676.102539 
z"/>
<path fill="#135943" opacity="1.000000" stroke="none" 
	d="
M629.387634,190.978714 
	C561.767883,96.812729 425.976593,30.530348 278.213531,77.418365 
	C276.395172,72.025406 274.570465,66.613556 272.494080,60.455338 
	C326.299774,42.923191 380.786499,38.955109 435.997009,49.446533 
	C522.363403,65.858391 591.393555,110.344711 644.782227,180.770142 
	C640.111267,184.222244 635.757812,187.439682 630.855774,190.790192 
	C629.999512,190.922501 629.692993,190.940994 629.387634,190.978714 
z"/>
<path fill="#BF975E" opacity="1.000000" stroke="none" 
	d="
M451.461853,612.069336 
	C429.383667,618.699097 406.882233,622.950439 383.805725,623.652771 
	C356.986572,624.468933 330.705017,620.997253 305.015411,613.182434 
	C303.590851,612.749084 302.134583,612.420105 300.186615,611.909851 
	C298.356995,617.254272 296.547363,622.540283 294.446259,628.677673 
	C288.058105,626.326599 281.817505,624.263794 275.758514,621.761292 
	C240.146729,607.052307 209.154160,585.623596 182.777435,557.525146 
	C181.880325,556.569458 180.808365,555.778015 179.408340,554.486450 
	C175.063675,549.153992 171.042892,544.310913 167.206741,539.325806 
	C130.423126,491.525818 111.758057,437.432556 110.976494,377.144501 
	C116.400085,377.097504 121.823669,377.050507 127.877090,377.023010 
	C128.506912,377.042511 128.806381,377.010620 128.853516,377.475830 
	C129.944351,390.847626 129.919022,403.956268 132.311035,416.607910 
	C135.098999,431.353851 140.000610,445.700195 143.985062,460.219940 
	C153.887833,488.142731 168.649658,513.275574 187.807510,535.805481 
	C217.498413,570.722473 254.038177,595.652100 297.481812,610.385681 
	C298.094086,610.593384 298.727234,610.739441 299.523682,610.962830 
	C300.252655,609.604736 300.933685,608.335876 301.704193,606.900391 
	C324.628357,614.554077 348.072937,618.332520 371.947662,618.758118 
	C397.374939,619.211426 422.360992,615.697083 446.692596,608.055481 
	C449.043182,607.317322 451.677002,605.831177 451.968750,610.794373 
	C451.698212,611.671814 451.580048,611.870544 451.461853,612.069336 
z"/>
<path fill="#135943" opacity="1.000000" stroke="none" 
	d="
M451.548126,612.465637 
	C451.580048,611.870544 451.698212,611.671814 451.994781,611.174988 
	C472.278931,605.050415 490.885284,595.891541 508.286743,584.464111 
	C566.580139,546.183167 603.291565,492.872223 617.496887,424.566315 
	C620.424133,410.490295 620.683533,395.858124 622.133118,381.478271 
	C622.279785,380.023438 622.152771,378.541077 622.152771,376.768311 
	C628.274658,376.768311 634.029053,376.768311 640.427368,376.768311 
	C640.203796,429.035767 626.193909,477.130554 597.648193,520.766479 
	C563.488220,572.984741 516.460815,608.684509 456.853210,628.902100 
	C454.991974,623.181580 453.313202,618.021729 451.548126,612.465637 
z"/>
<path fill="#ED6B54" opacity="1.000000" stroke="none" 
	d="
M556.992615,243.677826 
	C561.498779,240.573868 566.004883,237.469879 571.092285,234.324921 
	C572.498352,235.098373 573.565186,235.776627 574.111450,236.747711 
	C582.134094,251.008850 590.185608,265.255585 598.003967,279.628815 
	C600.744080,284.666229 602.870422,290.037476 605.277100,295.256256 
	C607.384705,303.254578 609.731689,311.198547 611.562439,319.259796 
	C627.780762,390.674042 615.234131,456.590637 573.555359,516.885559 
	C573.090881,517.557495 572.537048,518.167664 571.835083,519.043518 
	C567.081421,515.895081 562.433289,512.816589 557.445496,509.428894 
	C557.093262,508.807159 557.078613,508.494720 557.061768,508.182373 
	C576.101074,482.732910 588.895142,454.395172 595.209229,423.307831 
	C608.364014,358.540558 595.819397,299.052979 557.307434,244.712845 
	C557.001648,244.144928 556.999084,243.911362 556.992615,243.677826 
M608.605103,376.000000 
	C606.783264,376.000000 604.961426,376.000000 603.139648,376.000000 
	C603.151733,376.227478 603.163818,376.454987 603.175903,376.682465 
	C607.385559,376.682465 611.595276,376.682465 615.804993,376.682465 
	C615.803711,376.454987 615.802429,376.227478 615.801147,376.000000 
	C613.700745,376.000000 611.600403,376.000000 608.605103,376.000000 
z"/>
<path fill="#C0975E" opacity="1.000000" stroke="none" 
	d="
M506.014435,376.814758 
	C506.156158,404.885223 497.314331,429.993134 480.953430,453.299347 
	C476.039154,449.737000 471.397003,446.371918 466.354584,442.716675 
	C487.597931,411.526184 494.214294,377.925934 482.378143,342.008118 
	C470.569061,306.172424 445.821564,282.459991 410.023193,269.433929 
	C411.791595,263.919800 413.538544,258.472565 415.476227,252.430618 
	C442.422089,261.094910 463.619232,276.860382 480.755981,299.374695 
	C481.517334,300.793732 481.820526,301.776978 482.382019,302.579529 
	C497.976929,324.871674 505.586670,349.698181 506.014435,376.814758 
z"/>
<path fill="#BF975E" opacity="1.000000" stroke="none" 
	d="
M245.803635,376.064728 
	C246.205109,401.023010 252.241531,424.399170 265.855469,445.494049 
	C270.257385,452.314880 275.400208,458.657562 280.533112,465.668274 
	C280.101685,466.338654 279.353851,467.500671 278.456696,468.894684 
	C293.931091,485.320312 312.341949,496.769928 333.895477,504.270142 
	C332.198822,509.702148 330.541687,515.007507 328.462067,520.730652 
	C306.169769,514.462463 287.165802,502.768738 270.846344,486.995117 
	C239.619995,456.813049 223.739426,419.783051 223.009750,376.312439 
	C228.697021,376.240021 234.384293,376.167633 240.936081,376.055847 
	C243.134949,376.032562 244.469284,376.048645 245.803635,376.064728 
z"/>
<path fill="#ED6A54" opacity="1.000000" stroke="none" 
	d="
M630.503601,561.138550 
	C634.965393,564.582825 639.427185,568.027100 644.559143,571.988708 
	C601.835999,629.615051 546.736084,669.773987 478.166077,692.839050 
	C476.212463,686.986267 474.399811,681.555786 472.423828,675.635925 
	C536.924011,653.919250 589.270142,615.999451 629.939453,561.334534 
	C630.284668,561.050781 630.503601,561.138550 630.503601,561.138550 
z"/>
<path fill="#EC6A53" opacity="1.000000" stroke="none" 
	d="
M121.726151,466.549866 
	C116.371765,468.326904 111.017380,470.103973 105.035995,472.089111 
	C84.751648,413.540710 83.169044,354.711823 100.349930,294.653870 
	C105.942451,296.239044 111.153076,297.715942 116.744965,299.672791 
	C116.620186,302.081604 115.979446,303.986389 115.629715,305.943207 
	C113.121780,319.975494 110.673012,334.018341 108.205460,348.057831 
	C107.762344,357.382965 107.319229,366.708069 106.719406,376.848175 
	C106.508095,379.990051 106.337372,382.320892 106.416550,384.643219 
	C107.373657,412.718018 112.292282,440.057129 121.726151,466.549866 
z"/>
<path fill="#135943" opacity="1.000000" stroke="none" 
	d="
M301.291779,145.687393 
	C350.861389,129.627151 400.411346,130.058273 450.586182,145.476761 
	C448.650208,151.329971 446.889893,156.652206 444.870544,162.290436 
	C444.611542,162.606430 444.370728,162.820755 444.370728,162.820755 
	C398.694214,148.143341 353.012451,148.284317 306.860535,162.809479 
	C306.231415,162.720001 306.058502,162.706528 305.876709,162.806122 
	C304.243164,157.832718 302.609619,152.859314 301.015381,147.277145 
	C301.133698,146.341385 301.212738,146.014389 301.291779,145.687393 
z"/>
<path fill="#1E614C" opacity="1.000000" stroke="none" 
	d="
M630.708130,560.827515 
	C630.503601,561.138550 630.284668,561.050781 630.198730,561.128296 
	C628.850342,560.506836 627.587952,559.807800 626.924988,559.440674 
	C705.561951,437.255066 705.606750,315.799927 626.999329,193.531296 
	C627.179382,193.371735 628.161438,192.501511 629.265564,191.305008 
	C629.692993,190.940994 629.999512,190.922501 630.537537,190.926422 
	C632.538757,193.872635 634.184570,196.899796 636.099060,199.746246 
	C670.068909,250.250488 688.444092,305.798859 690.219666,366.733521 
	C692.296692,438.014648 672.112671,502.481110 630.708130,560.827515 
z"/>
<path fill="#68C9C8" opacity="1.000000" stroke="none" 
	d="
M563.846924,437.995331 
	C557.090820,457.397217 548.178772,475.672607 535.439819,492.786194 
	C530.655334,489.415375 526.098206,486.204742 521.125000,482.715576 
	C520.560181,482.221954 520.543762,481.997192 520.659546,481.762726 
	C537.730774,458.853516 548.418518,433.213165 552.938232,405.065948 
	C554.220764,397.078888 554.599426,388.928314 555.044434,380.833618 
	C555.239502,377.284271 556.270630,375.737122 560.050171,376.038727 
	C564.010620,376.354767 568.014893,376.121857 572.521301,376.598267 
	C572.141541,387.660370 571.754944,398.329773 570.189697,408.823425 
	C568.724915,418.644257 566.011047,428.278809 563.846924,437.995331 
z"/>
<path fill="#7B9F92" opacity="1.000000" stroke="none" 
	d="
M494.472473,243.210083 
	C491.340637,240.158112 488.464813,236.776520 485.032990,234.110764 
	C469.544922,222.080124 452.476471,212.865280 433.864471,206.667160 
	C430.054199,205.398270 429.299164,203.762939 430.767944,200.182037 
	C432.212677,196.659653 433.126862,192.919678 434.831299,189.004059 
	C436.520233,188.978027 437.688477,189.114685 438.777832,189.484039 
	C466.188690,198.777740 490.496613,213.269119 511.527588,233.169327 
	C517.031189,238.377029 522.288208,243.845306 527.658508,249.193924 
	C529.876709,252.215149 532.094910,255.236359 534.492371,258.501709 
	C529.873413,262.237640 525.449829,265.815582 520.634644,269.582947 
	C513.280579,261.860596 506.380005,253.892639 499.296051,246.091217 
	C498.091492,244.764633 496.100281,244.152344 494.472473,243.210083 
z"/>
<path fill="#ED6A53" opacity="1.000000" stroke="none" 
	d="
M422.063660,521.763794 
	C420.445648,516.218262 418.827637,510.672699 417.062164,504.621765 
	C444.488831,495.294739 467.052002,479.066956 484.556580,455.517517 
	C490.761292,460.025024 496.622162,464.282745 502.973236,468.896576 
	C482.449890,496.331390 456.646820,515.408203 424.077728,525.660461 
	C423.067505,524.156921 422.565582,522.960388 422.063660,521.763794 
z"/>
<path fill="#80A498" opacity="1.000000" stroke="none" 
	d="
M418.688324,87.278061 
	C452.424072,92.612778 484.194855,102.663467 513.722046,119.014145 
	C592.092957,162.412003 641.434143,227.852081 661.651978,315.176788 
	C661.838745,315.983704 661.939026,316.817871 661.995300,317.645050 
	C662.028137,318.127411 661.892883,318.621185 661.826904,319.161957 
	C661.384827,319.397308 660.977661,319.742981 660.521912,319.828186 
	C659.723267,319.977509 658.894714,319.967010 658.560486,319.990112 
	C624.603943,189.891068 541.385864,113.904831 409.219116,90.010399 
	C409.228729,90.105637 409.062225,89.458115 409.125854,88.834045 
	C409.206085,88.046417 409.473999,87.277908 409.712250,86.287895 
	C412.703766,86.610229 415.481049,86.909477 418.688324,87.278061 
z"/>
<path fill="#1C5F4A" opacity="1.000000" stroke="none" 
	d="
M520.363586,481.510162 
	C520.543762,481.997192 520.560181,482.221954 520.788818,482.593689 
	C505.236542,503.239471 486.582672,520.300964 464.077454,533.044983 
	C395.358765,571.958313 309.040741,561.219788 252.092590,506.407135 
	C244.339630,498.944855 237.442581,490.593262 229.897705,482.379669 
	C231.695526,480.800659 232.751785,479.872955 234.053253,478.729889 
	C234.944031,479.742188 235.724045,480.531708 236.394958,481.405060 
	C262.416046,515.277039 295.927948,538.283997 337.807220,546.774963 
	C409.122467,561.234192 467.910889,538.905273 514.145447,482.974548 
	C515.776978,481.000885 516.965210,477.957245 520.363586,481.510162 
z"/>
<path fill="#7FA497" opacity="1.000000" stroke="none" 
	d="
M300.985779,145.406403 
	C301.212738,146.014389 301.133698,146.341385 300.951416,146.899841 
	C298.766388,147.483765 296.574066,147.529678 294.619507,148.234756 
	C265.832825,158.618973 239.712357,173.658432 216.715698,193.865631 
	C173.520996,231.820862 146.980591,279.291199 137.284576,335.906891 
	C135.025330,349.098846 134.985168,362.670898 133.437683,376.539368 
	C131.569733,377.010651 130.188049,377.010620 128.806381,377.010620 
	C128.806381,377.010620 128.506912,377.042511 128.357666,377.036316 
	C128.805939,340.171295 135.970230,304.744843 151.990936,271.405914 
	C181.934525,209.093567 229.745422,166.485535 294.609772,142.824707 
	C297.557373,141.749481 299.759094,141.429840 300.985779,145.406403 
z"/>
<path fill="#256652" opacity="1.000000" stroke="none" 
	d="
M78.524597,159.299530 
	C164.585999,42.051376 305.255402,-10.406582 439.817719,13.499413 
	C475.398773,19.820648 487.876221,24.064579 489.029877,28.519733 
	C484.489075,27.237265 480.263000,26.018169 476.022858,24.849892 
	C385.605072,-0.062942 298.060852,7.682991 213.845657,48.934319 
	C161.357971,74.644493 117.882835,111.534912 82.921875,158.407013 
	C80.264679,161.969513 80.273209,161.975876 78.524597,159.299530 
z"/>
<path fill="#EF7661" opacity="1.000000" stroke="none" 
	d="
M132.153183,651.828125 
	C90.388321,614.978149 58.755821,571.219788 37.098534,520.300476 
	C33.327282,511.433777 30.177338,502.300110 26.867014,493.243500 
	C26.450422,492.103760 26.810083,490.680267 27.604113,489.160522 
	C53.656796,563.987732 97.694649,625.320496 161.893555,671.627625 
	C225.685394,717.641174 297.384155,740.340637 376.205841,741.399658 
	C375.981750,742.275146 375.757629,743.150574 375.533539,744.026062 
	C330.966278,744.281189 287.858429,736.079590 246.068100,720.318481 
	C204.044052,704.469116 166.129272,681.759949 132.153183,651.828125 
z"/>
<path fill="#1B5E48" opacity="1.000000" stroke="none" 
	d="
M421.658203,521.835938 
	C422.565582,522.960388 423.067505,524.156921 423.689392,525.662659 
	C405.373230,532.532349 386.308472,534.876099 366.892334,533.508362 
	C295.911224,528.508301 239.439819,480.909546 222.690125,411.671814 
	C220.168396,401.247772 219.820892,390.299683 218.430618,379.598785 
	C218.038757,376.582581 219.481674,375.722870 222.596313,376.235565 
	C223.739426,419.783051 239.619995,456.813049 270.846344,486.995117 
	C287.165802,502.768738 306.169769,514.462463 328.423279,521.127197 
	C359.535065,531.419250 390.354706,531.182556 421.658203,521.835938 
z"/>
<path fill="#73CDCC" opacity="1.000000" stroke="none" 
	d="
M694.793579,553.761719 
	C725.728577,498.385773 740.587952,439.045715 741.336060,375.900299 
	C742.184143,376.051636 743.032166,376.202972 743.880249,376.354309 
	C744.533508,397.943054 742.324707,419.384460 738.412292,440.620972 
	C722.601074,526.444763 681.748840,598.312683 615.658813,655.113159 
	C574.417969,690.557251 497.085541,731.279114 488.079102,723.931335 
	C578.204590,692.962402 647.291016,636.695496 694.793579,553.761719 
z"/>
<path fill="#ED705A" opacity="1.000000" stroke="none" 
	d="
M527.954468,248.940552 
	C522.288208,243.845306 517.031189,238.377029 511.527588,233.169327 
	C490.496613,213.269119 466.188690,198.777740 438.777832,189.484039 
	C437.688477,189.114685 436.520233,188.978027 435.046997,188.633057 
	C420.734589,185.681046 406.877899,181.360428 392.770844,180.265610 
	C357.397308,177.520340 347.433319,179.532608 302.521301,192.991165 
	C300.210602,190.556549 299.902954,188.744766 303.721802,187.331924 
	C332.056458,176.848785 361.188934,172.375748 391.415192,174.689102 
	C436.175201,178.114807 475.002747,195.454376 508.944611,224.263977 
	C515.899109,230.166901 521.987488,237.089539 528.484375,243.532745 
	C530.321533,245.354691 530.925720,247.086563 527.954468,248.940552 
z"/>
<path fill="#C29C65" opacity="1.000000" stroke="none" 
	d="
M405.773621,227.030396 
	C342.356598,216.193512 292.082550,237.931152 252.143250,286.878754 
	C251.624832,286.562958 250.895813,286.197205 250.262268,285.707886 
	C249.764236,285.323273 249.384109,284.786011 248.980362,284.347748 
	C284.656006,231.842697 358.192566,204.491745 423.927155,226.792465 
	C423.609650,228.084137 423.281525,229.418900 422.850189,231.173615 
	C417.067383,229.755981 411.631653,228.423447 405.773621,227.030396 
z"/>
<path fill="#7FA397" opacity="1.000000" stroke="none" 
	d="
M278.510193,676.027405 
	C276.560638,675.300110 275.029358,674.428589 273.430756,673.705994 
	C257.075684,666.312866 240.709686,658.943909 224.172302,651.277283 
	C224.531998,649.808411 225.066132,648.630432 225.815857,646.977051 
	C254.701599,662.707581 284.933441,673.897400 316.960846,680.122070 
	C348.843658,686.318726 380.907837,687.731079 413.209961,683.733337 
	C414.768372,687.255188 414.332886,688.690857 410.388519,689.130249 
	C366.620667,694.007263 323.815613,689.372314 281.796814,676.535522 
	C280.858490,676.248840 279.864990,676.142639 278.510193,676.027405 
z"/>
<path fill="#C29A63" opacity="1.000000" stroke="none" 
	d="
M643.665161,479.558350 
	C656.104248,446.080505 662.659973,411.897278 662.358582,376.237000 
	C664.284302,376.152161 665.720825,376.088867 667.956848,375.990356 
	C667.527161,439.448334 649.297485,496.657166 612.699768,548.093933 
	C611.855591,547.796204 611.350891,547.710449 610.951477,547.458130 
	C610.117126,546.931030 609.338257,546.315979 608.041931,545.379822 
	C622.607300,524.966675 634.519409,503.217438 643.665161,479.558350 
z"/>
<path fill="#185943" opacity="1.000000" stroke="none" 
	d="
M121.863235,466.944031 
	C112.292282,440.057129 107.373657,412.718018 106.416550,384.643219 
	C106.337372,382.320892 106.508095,379.990051 106.753685,377.313416 
	C108.022491,376.977661 109.100311,376.991608 110.577316,377.075012 
	C111.758057,437.432556 130.423126,491.525818 167.206741,539.325806 
	C171.042892,544.310913 175.063675,549.153992 179.079163,554.385132 
	C178.273407,555.447449 177.387299,556.187561 176.121887,557.244446 
	C152.028046,530.823486 134.211533,500.785309 121.863235,466.944031 
z"/>
<path fill="#EE6F5A" opacity="1.000000" stroke="none" 
	d="
M196.182373,146.200073 
	C223.197037,125.103798 252.631180,109.341164 285.216766,98.683342 
	C285.767242,100.471542 286.181702,101.817871 286.661621,103.376968 
	C227.886063,123.329781 180.270874,158.161346 143.382462,208.055252 
	C142.066727,207.036499 140.938278,206.162750 139.456818,205.015671 
	C155.634369,182.634674 174.466232,163.285049 196.182373,146.200073 
z"/>
<path fill="#80A498" opacity="1.000000" stroke="none" 
	d="
M195.240463,598.784729 
	C212.275772,610.387268 229.036667,621.760803 246.117783,633.351624 
	C245.124954,636.566040 245.090607,636.632202 240.613235,634.307495 
	C197.201752,611.768494 161.579086,580.391113 134.073502,539.929871 
	C128.560135,531.819580 123.732841,523.241516 118.635391,514.851135 
	C117.697105,513.306702 116.981133,511.627289 116.135727,509.957184 
	C119.039780,507.027679 120.634979,507.699432 122.452347,511.098114 
	C140.670486,545.168457 165.000717,574.207092 195.240463,598.784729 
z"/>
<path fill="#1B5E48" opacity="1.000000" stroke="none" 
	d="
M108.541458,348.058746 
	C110.673012,334.018341 113.121780,319.975494 115.629715,305.943207 
	C115.979446,303.986389 116.620186,302.081604 117.137756,299.775940 
	C124.733810,275.740021 134.217865,252.896835 148.011261,232.147507 
	C156.367966,219.576553 165.650253,207.620895 174.612686,195.256378 
	C176.270081,196.212250 176.986084,196.541962 177.601257,197.005463 
	C178.124237,197.399521 178.530975,197.947861 179.358963,198.815445 
	C141.527634,241.420380 119.263588,291.092560 112.784203,348.059662 
	C111.440231,348.059662 110.158852,348.059662 108.541458,348.058746 
z"/>
<path fill="#EE715B" opacity="1.000000" stroke="none" 
	d="
M462.849854,121.147232 
	C496.991272,132.838715 528.169434,152.173157 542.175598,164.749130 
	C541.316406,165.845001 540.442505,166.959579 539.802917,167.775375 
	C528.167908,160.343094 517.116333,152.603760 505.443115,145.956146 
	C472.464752,127.175819 436.967926,116.134521 399.112305,112.846207 
	C395.633484,112.544022 392.152893,112.130508 388.667816,112.068443 
	C385.140839,112.005630 384.822052,110.315155 386.058777,106.947235 
	C412.192322,107.733231 437.627625,112.700623 462.849854,121.147232 
z"/>
<path fill="#80A498" opacity="1.000000" stroke="none" 
	d="
M245.887558,375.608826 
	C244.469284,376.048645 243.134949,376.032562 241.400421,375.991455 
	C240.715820,320.730408 276.974426,268.674133 328.742920,249.995483 
	C329.368713,249.769684 330.046082,249.277771 330.613739,249.380997 
	C332.002594,249.633530 333.341217,250.162292 334.700073,250.579865 
	C333.931885,251.751007 333.435699,253.458755 332.352264,254.007858 
	C324.204346,258.137329 315.433441,261.248016 307.799988,266.146271 
	C272.366119,288.883545 251.644531,321.137482 246.796295,363.213135 
	C246.340134,367.172180 246.237991,371.172028 245.887558,375.608826 
z"/>
<path fill="#C39A63" opacity="1.000000" stroke="none" 
	d="
M605.624512,295.220520 
	C602.870422,290.037476 600.744080,284.666229 598.003967,279.628815 
	C590.185608,265.255585 582.134094,251.008850 574.111450,236.747711 
	C573.565186,235.776627 572.498352,235.098373 571.374207,234.135864 
	C561.184387,222.568024 551.806274,210.644897 541.240234,199.888809 
	C532.885986,191.384308 523.072388,184.313354 513.515625,176.276840 
	C513.945557,175.524307 514.633179,174.320755 515.469421,172.857025 
	C516.706177,173.507568 517.761108,173.918686 518.656616,174.554443 
	C546.048889,194.001465 568.918762,217.840057 585.955078,246.765045 
	C594.193481,260.752563 600.455872,275.907562 607.515076,290.581055 
	C608.350159,292.316956 609.972290,294.834778 605.624512,295.220520 
z"/>
<path fill="#EF7763" opacity="1.000000" stroke="none" 
	d="
M10.128359,416.923218 
	C7.649898,393.574738 7.190567,370.648285 8.970529,347.680359 
	C12.531900,301.725861 24.380526,258.010437 44.363571,216.491241 
	C44.824497,215.533554 45.597977,214.726334 46.225666,213.848923 
	C46.692005,213.997086 47.158348,214.145233 47.624687,214.293381 
	C47.311199,215.718765 47.252281,217.263916 46.646366,218.551697 
	C36.141708,240.877884 27.664145,263.927002 21.734819,287.893188 
	C9.790829,336.170471 7.641857,384.853851 15.649990,433.966705 
	C15.902861,435.517517 15.682022,437.145599 15.682022,438.737640 
	C14.920631,438.806335 14.159241,438.875000 13.397851,438.943695 
	C12.320778,431.754120 11.243704,424.564545 10.128359,416.923218 
z"/>
<path fill="#1C5F4A" opacity="1.000000" stroke="none" 
	d="
M178.925629,473.995789 
	C187.666718,488.500275 196.267685,502.657043 205.054993,517.120544 
	C204.782959,517.340332 203.661331,518.246521 202.546600,519.147095 
	C174.362518,487.423981 153.488358,436.150269 151.793564,390.265320 
	C153.147873,390.133026 154.529877,389.998047 156.417648,389.813660 
	C158.512238,419.373199 165.763000,447.300140 178.925629,473.995789 
z"/>
<path fill="#73CDCC" opacity="1.000000" stroke="none" 
	d="
M679.352905,167.636536 
	C708.186768,209.806854 744.409790,301.459503 735.549377,312.333435 
	C720.819641,234.025223 685.297852,167.372482 628.229431,112.277641 
	C628.763123,111.757416 629.296814,111.237190 629.830444,110.716965 
	C631.315674,111.759521 632.982605,112.617348 634.258606,113.872620 
	C650.920776,130.264328 665.980530,148.009613 679.352905,167.636536 
z"/>
<path fill="#EE705A" opacity="1.000000" stroke="none" 
	d="
M305.448547,162.889893 
	C306.058502,162.706528 306.231415,162.720001 306.483948,162.948730 
	C306.832947,164.346832 307.093384,165.642746 307.460754,167.470673 
	C262.835327,182.661865 226.349030,209.236298 198.040344,247.426239 
	C196.614685,246.538345 195.418045,245.793060 193.765579,244.763901 
	C222.524811,205.693604 259.549286,178.622208 305.448547,162.889893 
z"/>
<path fill="#ED6B55" opacity="1.000000" stroke="none" 
	d="
M444.285004,163.244293 
	C444.370728,162.820755 444.611542,162.606430 444.686951,162.649628 
	C466.173615,168.982162 485.678925,179.184479 503.955048,191.810226 
	C524.371521,205.914597 541.921631,223.016418 556.814148,243.344971 
	C556.999084,243.911362 557.001648,244.144928 556.999695,244.555145 
	C555.904541,245.460037 554.809998,246.188309 554.299988,246.527634 
	C544.474182,236.021652 535.295349,225.260895 525.129211,215.531815 
	C502.961334,194.316986 477.047394,178.997513 448.076447,168.877228 
	C445.558594,167.997681 442.544067,167.602158 444.285004,163.244293 
z"/>
<path fill="#C29C65" opacity="1.000000" stroke="none" 
	d="
M556.781250,508.006073 
	C557.078613,508.494720 557.093262,508.807159 557.089783,509.350372 
	C544.486206,527.850708 528.748047,543.039368 511.104553,556.319275 
	C491.279541,571.241150 469.621033,582.669189 445.428955,589.673157 
	C444.611206,588.162292 444.236328,587.001526 443.861450,585.840820 
	C457.603455,579.681458 471.798431,574.355774 484.991760,567.186707 
	C511.293488,552.894775 533.172607,533.175354 551.309387,509.335266 
	C552.610229,507.625397 553.776306,504.882141 556.781250,508.006073 
z"/>
<path fill="#6DCBCA" opacity="1.000000" stroke="none" 
	d="
M443.469543,585.872192 
	C444.236328,587.001526 444.611206,588.162292 445.045776,589.684998 
	C433.212555,592.967041 421.456940,596.777527 409.400391,598.636108 
	C376.396210,603.723999 343.756775,601.160645 311.746918,591.553711 
	C309.962769,591.018188 307.102020,588.628235 307.324829,587.779053 
	C308.350128,583.872070 311.316589,586.250061 313.383972,586.848572 
	C355.854401,599.143250 398.264984,599.321411 440.646393,586.442566 
	C441.438293,586.201965 442.266418,586.080566 443.469543,585.872192 
z"/>
<path fill="#ED705A" opacity="1.000000" stroke="none" 
	d="
M564.220093,438.059326 
	C566.011047,428.278809 568.724915,418.644257 570.189697,408.823425 
	C571.754944,398.329773 572.141541,387.660370 572.983643,376.618927 
	C572.217102,365.907532 572.085083,355.562897 570.638489,345.405518 
	C569.216248,335.419159 566.459595,325.622894 564.197937,315.331177 
	C565.208069,314.936829 566.513855,314.427063 568.874939,313.505310 
	C571.259094,324.141907 574.091919,334.183899 575.694763,344.418549 
	C580.471069,374.915924 578.454712,405.061066 569.662231,434.701050 
	C568.920349,437.201965 568.565979,440.367279 564.220093,438.059326 
z"/>
<path fill="#6ECBCA" opacity="1.000000" stroke="none" 
	d="
M178.917023,384.941284 
	C179.843369,393.677734 180.630035,401.942474 181.757523,410.160431 
	C182.248520,413.739044 181.286880,415.208008 177.149811,414.525635 
	C169.636795,371.961426 174.209778,330.948486 192.516678,291.181122 
	C194.033279,291.700958 195.360382,292.155884 197.295807,292.819305 
	C184.091049,322.117249 177.449295,352.501007 178.917023,384.941284 
z"/>
<path fill="#1D604B" opacity="1.000000" stroke="none" 
	d="
M227.869354,273.841858 
	C232.643082,267.633148 237.219757,261.725006 241.992340,255.563965 
	C243.531464,256.748383 244.658661,257.615845 246.207932,258.808075 
	C221.140152,286.928894 206.243805,319.512390 201.819046,356.703735 
	C201.426254,356.884186 201.127853,357.140808 200.834946,357.134674 
	C199.684570,357.110565 198.535904,357.003662 196.863724,356.892853 
	C200.148270,326.534058 210.462296,299.074829 227.869354,273.841858 
z"/>
<path fill="#1B5E49" opacity="1.000000" stroke="none" 
	d="
M494.225830,243.498642 
	C496.100281,244.152344 498.091492,244.764633 499.296051,246.091217 
	C506.380005,253.892639 513.280579,261.860596 520.539490,269.923767 
	C534.930298,289.507751 544.923340,310.837006 550.472839,334.216278 
	C551.448669,338.327606 551.418396,338.334778 547.130188,338.855560 
	C543.926331,329.293640 541.164795,319.586273 537.451965,310.257507 
	C527.976685,286.450043 513.495117,265.967316 494.926758,248.346832 
	C493.567535,247.056961 491.275513,245.933426 494.225830,243.498642 
z"/>
<path fill="#ED6E58" opacity="1.000000" stroke="none" 
	d="
M506.423767,376.753235 
	C505.586670,349.698181 497.976929,324.871674 482.382019,302.579529 
	C481.820526,301.776978 481.517334,300.793732 481.048828,299.556824 
	C482.127563,298.532806 483.251190,297.846588 484.650330,296.992157 
	C495.320435,311.357117 502.954803,327.088196 506.833008,344.414612 
	C508.887177,353.591858 509.555237,363.078064 510.881836,372.420135 
	C511.334015,375.604584 510.219269,377.197723 506.423767,376.753235 
z"/>
<path fill="#6CC9C7" opacity="1.000000" stroke="none" 
	d="
M128.853516,377.475830 
	C130.188049,377.010620 131.569733,377.010651 133.359512,376.999939 
	C133.811920,403.969513 138.276337,430.203735 147.271561,455.634033 
	C148.318954,458.595123 147.381546,459.615356 144.360779,460.141174 
	C140.000610,445.700195 135.098999,431.353851 132.311035,416.607910 
	C129.919022,403.956268 129.944351,390.847626 128.853516,377.475830 
z"/>
<path fill="#EE705A" opacity="1.000000" stroke="none" 
	d="
M297.743408,457.259277 
	C293.184265,452.238831 288.875519,447.469055 284.285492,442.387939 
	C286.141052,441.073425 287.293243,440.257172 288.858673,439.148224 
	C302.683350,457.655640 320.325836,470.737091 342.248199,478.343567 
	C341.799316,480.072479 341.445374,481.435699 340.962677,483.294830 
	C324.314209,478.005035 310.281250,469.238129 297.743408,457.259277 
z"/>
<path fill="#C39D67" opacity="1.000000" stroke="none" 
	d="
M268.559570,342.575745 
	C272.433624,330.954651 277.669769,320.495361 284.871277,310.519318 
	C286.328644,311.614166 287.438538,312.447998 288.359955,313.140228 
	C284.498138,320.420349 280.435638,327.115875 277.293274,334.218475 
	C272.013184,346.152985 268.944000,358.692657 268.600403,371.855408 
	C268.557861,373.485992 266.891357,376.385071 265.849884,376.444031 
	C262.034302,376.660004 263.137268,373.308868 263.448608,371.339417 
	C264.948792,361.850708 266.727356,352.406006 268.559570,342.575745 
z"/>
<path fill="#1B5E49" opacity="1.000000" stroke="none" 
	d="
M440.323425,313.681274 
	C443.148926,316.947937 445.725342,319.961456 448.503510,323.210968 
	C447.114807,324.349670 446.015961,325.250702 444.597107,326.414154 
	C433.418060,311.833160 419.454498,301.319824 401.757446,295.449158 
	C402.166992,293.882111 402.520935,292.527802 402.999603,290.696228 
	C417.574371,295.188995 429.615845,302.992249 440.323425,313.681274 
z"/>
<path fill="#ED6B55" opacity="1.000000" stroke="none" 
	d="
M609.052551,376.000000 
	C611.600403,376.000000 613.700745,376.000000 615.801147,376.000000 
	C615.802429,376.227478 615.803711,376.454987 615.804993,376.682465 
	C611.595276,376.682465 607.385559,376.682465 603.175903,376.682465 
	C603.163818,376.454987 603.151733,376.227478 603.139648,376.000000 
	C604.961426,376.000000 606.783264,376.000000 609.052551,376.000000 
z"/>
</svg>